<svg width="33" height="26" viewBox="0 0 33 26" fill="none" xmlns="http://www.w3.org/2000/svg">
<path d="M2.90292 22.9129C1.01413 20.9077 0 18.6575 0 15.0097C0 8.59408 4.5036 2.84255 11.0561 0L12.6927 2.52562C6.57807 5.83405 5.383 10.1252 4.90534 12.8312C5.88982 12.3221 7.17856 12.1429 8.44197 12.2601C11.75 12.5668 14.3572 15.2823 14.3572 18.6575C14.3572 22.2013 11.4843 25.0742 7.94046 25.0742C5.97318 25.0742 4.09193 24.1749 2.90292 22.9129ZM21.2362 22.9129C19.3475 20.9077 18.3333 18.6575 18.3333 15.0097C18.3333 8.59408 22.8369 2.84255 29.3894 0L31.0261 2.52562C24.9113 5.83405 23.7164 10.1252 23.2386 12.8312C24.2231 12.3221 25.5119 12.1429 26.7753 12.2601C30.0834 12.5668 32.6905 15.2823 32.6905 18.6575C32.6905 22.2013 29.8177 25.0742 26.2739 25.0742C24.3065 25.0742 22.4253 24.1749 21.2362 22.9129Z" fill="#E66637"/>
</svg>
