<svg width="20" height="20" viewBox="0 0 20 20" fill="none" xmlns="http://www.w3.org/2000/svg">
<path d="M18 10C18 14.4183 14.4183 18 10 18C5.58172 18 2 14.4183 2 10C2 5.58172 5.58172 2 10 2C14.4183 2 18 5.58172 18 10ZM10 20C15.5228 20 20 15.5228 20 10C20 4.47715 15.5228 0 10 0C4.47715 0 0 4.47715 0 10C0 15.5228 4.47715 20 10 20ZM10.3584 7.38246C9.3857 7.78702 7.4418 8.6244 4.5266 9.8945C4.05321 10.0827 3.80524 10.2669 3.78266 10.4469C3.74451 10.7513 4.12561 10.8711 4.64458 11.0343C4.71517 11.0565 4.78832 11.0795 4.8633 11.1039C5.37388 11.2698 6.06071 11.464 6.41776 11.4717C6.74164 11.4787 7.10313 11.3452 7.50222 11.0711C10.226 9.2325 11.632 8.3032 11.7203 8.2832C11.7826 8.269 11.8689 8.2513 11.9273 8.3032C11.9858 8.3552 11.98 8.4536 11.9739 8.48C11.9361 8.641 10.4401 10.0318 9.6659 10.7515C9.4351 10.9661 9.2101 11.1853 8.9833 11.4039C8.509 11.8611 8.1533 12.204 9.003 12.764C9.8644 13.3317 10.7323 13.8982 11.5724 14.4971C11.9867 14.7925 12.359 15.0579 12.8188 15.0156C13.0861 14.991 13.3621 14.7397 13.5022 13.9903C13.8335 12.2193 14.4847 8.3821 14.6352 6.80083C14.6484 6.6623 14.6318 6.485 14.6185 6.40717C14.6052 6.32934 14.5773 6.21844 14.4762 6.13635C14.3563 6.03913 14.1714 6.01863 14.0887 6.02009C13.7125 6.02672 13.1355 6.22737 10.3584 7.38246Z" fill="#1A1A1A"/>
</svg>
